<svg xmlns="http://www.w3.org/2000/svg" fill="none" viewBox="0 0 151 44"><path fill="#fff" d="M63.863 29q-.195-.39-.317-1.392-1.575 1.636-3.76 1.636-1.953 0-3.21-1.099-1.245-1.11-1.245-2.807 0-2.063 1.562-3.198 1.575-1.148 4.419-1.148h2.197v-1.037q0-1.184-.708-1.88-.708-.708-2.087-.708-1.209 0-2.026.61-.819.611-.818 1.477H55.6q0-.99.695-1.904.708-.928 1.904-1.465 1.209-.537 2.65-.537 2.282 0 3.576 1.147 1.293 1.136 1.343 3.137v6.08q0 1.819.463 2.893V29zm-3.747-1.721a3.97 3.97 0 0 0 2.014-.55q.952-.549 1.38-1.428v-2.71h-1.77q-4.151 0-4.151 2.43 0 1.06.708 1.66.708.598 1.819.598M68.758 22.286q0-3.113 1.428-4.92 1.429-1.818 3.833-1.818 2.344 0 3.7 1.575l.097-1.331h2.075v18.286h-2.258V27.78q-1.368 1.465-3.638 1.465-2.393 0-3.82-1.855-1.417-1.867-1.417-4.944zm2.259.256q0 2.27.952 3.565.964 1.294 2.588 1.294 2.013 0 3.076-1.782v-6.47q-1.075-1.746-3.052-1.746-1.635 0-2.6 1.306-.964 1.294-.964 3.834M91.67 27.694q-1.317 1.55-3.869 1.55-2.112 0-3.222-1.22-1.1-1.234-1.111-3.638v-8.594h2.258v8.533q0 3.003 2.442 3.003 2.587 0 3.442-1.93v-9.606h2.258V29H91.72zM105.465 29q-.195-.39-.318-1.392-1.574 1.636-3.759 1.636-1.954 0-3.21-1.099-1.245-1.11-1.246-2.807 0-2.063 1.563-3.198 1.574-1.148 4.419-1.148h2.197v-1.037q0-1.184-.708-1.88-.708-.708-2.088-.708-1.208 0-2.026.61-.818.611-.818 1.477h-2.27q0-.99.696-1.904.707-.928 1.904-1.465 1.208-.537 2.649-.537 2.283 0 3.576 1.147 1.295 1.136 1.343 3.137v6.08q0 1.819.464 2.893V29zm-3.748-1.721q1.063 0 2.014-.55.953-.549 1.38-1.428v-2.71h-1.77q-4.15 0-4.15 2.43 0 1.06.707 1.66.708.598 1.819.598M117.293 17.818a7 7 0 0 0-1.11-.085q-2.223 0-3.016 1.892V29h-2.258V15.792h2.197l.037 1.526q1.111-1.77 3.149-1.77.66 0 1.001.17zM121.834 29h-2.258V15.792h2.258zm-2.441-16.711q0-.55.33-.928.341-.379 1.001-.379t1.001.379.341.928q0 .549-.341.915-.342.366-1.001.366-.66 0-1.001-.366-.33-.367-.33-.915M133.614 27.694q-1.319 1.55-3.869 1.55-2.112 0-3.223-1.22-1.098-1.234-1.111-3.638v-8.594h2.258v8.533q0 3.003 2.442 3.003 2.588 0 3.442-1.93v-9.606h2.259V29h-2.149zM146.944 25.497q0-.916-.695-1.416-.684-.513-2.405-.88-1.71-.366-2.722-.878-1.001-.513-1.49-1.22-.476-.71-.476-1.686 0-1.623 1.367-2.746 1.38-1.123 3.516-1.123 2.246 0 3.638 1.16 1.404 1.159 1.404 2.966h-2.271q0-.928-.793-1.6-.781-.67-1.978-.67-1.233 0-1.929.536-.695.537-.695 1.404 0 .818.647 1.233t2.331.794q1.697.378 2.747.903t1.55 1.27q.513.732.513 1.794 0 1.77-1.416 2.844-1.416 1.062-3.675 1.062-1.587 0-2.807-.561-1.221-.562-1.917-1.563a3.83 3.83 0 0 1-.683-2.185h2.258q.061 1.136.903 1.807.855.66 2.246.659 1.282 0 2.051-.513.781-.525.781-1.391"/><path fill="#872AB0" d="M0 20C0 10.572 0 5.858 2.929 2.929S10.572 0 20 0h4c9.428 0 14.142 0 17.071 2.929S44 10.572 44 20v4c0 9.428 0 14.142-2.929 17.071S33.428 44 24 44h-4c-9.428 0-14.142 0-17.071-2.929S0 33.428 0 24z"/><path fill="#fff" fill-rule="evenodd" d="m26.05 20.236 4.92 4.885 4.886-4.854L38 22.384l-7.03 6.983-4.92-4.885-7.759 7.703-4.163-4.133L9.144 33 7 30.882l7.128-7.076 4.163 4.133z" clip-rule="evenodd"/><path fill="#fff" fill-rule="evenodd" d="m26.05 12 4.92 4.885 4.886-4.854L38 14.148l-7.03 6.983-4.92-4.885-7.759 7.703-4.163-4.133-4.984 4.948L7 22.646l7.128-7.076 4.163 4.133z" clip-rule="evenodd"/></svg>
