<svg
  width="500"
  height="500"
  viewBox="0 0 500 500"
  fill="none"
  xmlns="http://www.w3.org/2000/svg"
>
  <path
    d="M435.987 248.896C436.325 279.351 429.95 308.454 417.425 336.258C399.54 375.85 356.664 408.224 317.511 373.764C285.579 345.677 279.654 288.657 231.813 280.31C168.513 272.64 166.99 346.016 125.636 354.305C79.5435 363.668 64.2544 286.175 64.9314 250.982C65.6084 215.789 74.9737 166.327 115.03 166.327C161.123 166.327 164.226 236.093 222.73 232.314C280.67 228.366 281.686 155.78 319.543 124.704C352.207 97.8583 390.627 117.542 409.865 149.859C427.693 179.75 435.536 214.83 435.931 248.896H435.987Z"
    fill="#97FCE4"
  />
</svg>
