<svg width="121.179" height="32.0003" overflow="visible" style="display: block;" viewBox="0 0 121.179 32.0003" fill="none" xmlns="http://www.w3.org/2000/svg">
<g id="Layer 1">
<path id="Vector" d="M55.6014 23.8795C54.5531 23.8795 53.634 23.6501 52.8449 23.1917C52.0552 22.7333 51.4463 22.0775 51.0174 21.2237C50.5885 20.3703 50.3744 19.372 50.3744 18.2292C50.3744 17.0864 50.5991 16.1764 51.0482 15.3301C51.4973 14.4835 52.1201 13.8205 52.9164 13.3407C53.7127 12.8611 54.6009 12.6212 55.5809 12.6212C56.7106 12.6212 57.6635 12.9037 58.4396 13.4678C59.2153 14.0322 59.7872 14.794 60.1546 15.7534C60.5064 16.6715 60.6459 17.6996 60.5738 18.8368C60.5682 18.9235 60.4992 18.991 60.4156 18.991H53.5246C53.4314 18.991 53.359 19.0739 53.3668 19.1703C53.4078 19.67 53.5197 20.0934 53.7024 20.4405C53.9066 20.8287 54.1649 21.1109 54.4782 21.2871C54.7911 21.4637 55.1588 21.5516 55.5809 21.5516C56.1798 21.5516 56.6596 21.3928 57.0205 21.0755C57.3515 20.7839 57.6343 20.3886 57.8677 19.8889C57.9035 19.8124 57.9892 19.7763 58.066 19.8062L60.443 20.7277C60.5303 20.7616 60.5713 20.8663 60.5303 20.9533C60.3075 21.4276 60.0191 21.8708 59.6644 22.2823C59.2694 22.741 58.7355 23.1218 58.0617 23.4251C57.3878 23.7284 56.5677 23.8801 55.6014 23.8801V23.8795ZM57.4441 16.8533C57.5408 16.8533 57.6147 16.7638 57.6004 16.6646C57.5495 16.3097 57.4512 16.0054 57.3061 15.7531C57.1358 15.4569 56.9046 15.2275 56.6118 15.0653C56.319 14.9034 55.9753 14.8219 55.5806 14.8219C55.0087 14.8219 54.5357 14.9985 54.1615 15.3509C53.8258 15.667 53.6023 16.1021 53.4911 16.6559C53.4706 16.7576 53.5458 16.8533 53.6462 16.8533H57.4435H57.4441Z" fill="#FFFFFF"/>
<path id="Vector_2" d="M36.4982 23.7117V20.5642C36.4982 20.5213 36.5141 20.4803 36.5427 20.4492L44.5861 11.7043C44.6846 11.5974 44.6103 11.4215 44.4667 11.4215H36.7894C36.699 11.4215 36.6256 11.3463 36.6256 11.2537V8.77474C36.6256 8.68212 36.699 8.60691 36.7894 8.60691H48.4518C48.5422 8.60691 48.6156 8.68212 48.6156 8.77474V11.8128C48.6156 11.8557 48.5994 11.897 48.5708 11.9281L40.4646 20.7165C40.3658 20.8234 40.4401 20.9996 40.5836 20.9996H48.8139C48.9043 20.9996 48.9777 21.0749 48.9777 21.1675V23.712C48.9777 23.8046 48.9043 23.8798 48.8139 23.8798H36.6617C36.5713 23.8798 36.4979 23.8046 36.4979 23.712L36.4982 23.7117Z" fill="#FFFFFF"/>
<path id="Vector_3" d="M62.0594 23.7256V13.202C62.0594 13.1172 62.1284 13.0482 62.2132 13.0482H64.9818C65.0667 13.0482 65.1357 13.1172 65.1357 13.202V14.8897C65.1357 15.0473 65.3439 15.1026 65.4225 14.9661C65.6995 14.486 66.0513 14.0452 66.4786 13.644C67.0707 13.0883 67.9372 12.8101 69.0781 12.8101C69.2273 12.8101 69.3594 12.8136 69.4744 12.8204C69.5558 12.8254 69.6196 12.8922 69.6196 12.9739V15.9075C69.6196 15.9995 69.5394 16.0707 69.448 16.0601C69.066 16.0163 68.7117 15.9943 68.3848 15.9943C67.2724 15.9943 66.4678 16.2578 65.9695 16.7849C65.4713 17.3123 65.2221 18.2329 65.2221 19.547V23.7256C65.2221 23.8105 65.1531 23.8795 65.0682 23.8795H62.2132C62.1284 23.8795 62.0594 23.8105 62.0594 23.7256Z" fill="#FFFFFF"/>
<path id="Vector_4" d="M76.7393 23.8795C75.6562 23.8795 74.6738 23.6302 73.7933 23.132C72.9122 22.6338 72.2262 21.9479 71.7355 21.0742C71.2444 20.2006 70.9989 19.215 70.9989 18.1173C70.9989 16.9621 71.2407 15.951 71.7246 15.0845C72.2082 14.218 72.8907 13.5464 73.7718 13.07C74.6526 12.5935 75.6419 12.3551 76.7396 12.3551C77.8374 12.3551 78.8444 12.5935 79.7183 13.07C80.592 13.5464 81.2742 14.218 81.7655 15.0845C82.2563 15.951 82.5021 16.9621 82.5021 18.1173C82.5021 19.2725 82.2563 20.2873 81.7655 21.1609C81.2745 22.0349 80.592 22.7065 79.7183 23.1755C78.8444 23.6445 77.8517 23.8795 76.7396 23.8795H76.7393ZM76.7393 21.3881C77.2301 21.3881 77.6562 21.2728 78.0173 21.0416C78.3782 20.8107 78.6597 20.4495 78.8621 19.9585C79.0641 19.4677 79.1654 18.8682 79.1654 18.1605C79.1654 17.4528 79.0641 16.8281 78.8621 16.3299C78.6597 15.8317 78.3747 15.46 78.0064 15.2145C77.6381 14.9689 77.2158 14.8462 76.7393 14.8462C76.2629 14.8462 75.8402 14.9689 75.4722 15.2145C75.1039 15.4603 74.8186 15.8317 74.6166 16.3299C74.4142 16.8281 74.3132 17.4385 74.3132 18.1605C74.3132 18.8825 74.4142 19.4677 74.6166 19.9585C74.8186 20.4495 75.1002 20.8107 75.4613 21.0416C75.8222 21.2728 76.2483 21.3881 76.7393 21.3881Z" fill="#FFFFFF"/>
<path id="Vector_5" d="M83.9554 23.712V8.86145C83.9554 8.76884 84.0228 8.69393 84.1061 8.69393H89.1466C90.4737 8.69393 91.6868 8.99416 92.7864 9.59431C93.8857 10.1945 94.7605 11.0585 95.4114 12.1867C96.0619 13.3149 96.3873 14.6454 96.3873 16.1782C96.3873 17.7111 96.0619 19.1252 95.4114 20.2892C94.7605 21.4534 93.8857 22.3429 92.7864 22.9574C91.6868 23.5721 90.4799 23.8795 89.1662 23.8795H84.1061C84.0228 23.8795 83.9554 23.8046 83.9554 23.712ZM89.0099 21.0808C89.9594 21.0808 90.7435 20.8965 91.3617 20.5275C91.9795 20.1586 92.4448 19.6163 92.7572 18.9005C93.0695 18.1848 93.2255 17.299 93.2255 16.2432C93.2255 15.2887 93.0695 14.457 92.7572 13.7484C92.4448 13.0401 91.983 12.4869 91.3716 12.0888C90.76 11.6913 90.0054 11.492 89.1078 11.492H87.1507C87.0674 11.492 86.9999 11.5669 86.9999 11.6596V20.9129C86.9999 21.0055 87.0674 21.0804 87.1507 21.0804H89.0102L89.0099 21.0808Z" fill="#FFFFFF"/>
<path id="Vector_6" d="M113.475 23.771L109.467 13.2769C109.424 13.1666 109.506 13.0482 109.624 13.0482H112.551C112.623 13.0482 112.688 13.0942 112.711 13.1626L114.145 17.3807C114.652 18.8909 115.018 20.001 115.244 20.7106C115.294 20.8669 115.515 20.8672 115.565 20.7115C115.807 19.9631 116.165 18.853 116.636 17.3807L118.006 13.1648C118.029 13.0954 118.094 13.0482 118.167 13.0482H121.01C121.127 13.0482 121.209 13.1641 121.169 13.2742L117.37 23.7682C117.346 23.835 117.282 23.8795 117.211 23.8795H113.633C113.563 23.8795 113.501 23.8363 113.476 23.771H113.475Z" fill="#FFFFFF"/>
<path id="Vector_7" d="M103.024 23.8795C101.975 23.8795 101.056 23.6501 100.267 23.1917C99.4776 22.7333 98.8687 22.0775 98.4398 21.2237C98.0109 20.3703 97.7968 19.372 97.7968 18.2292C97.7968 17.0864 98.0215 16.1764 98.4706 15.3301C98.9197 14.4835 99.5425 13.8205 100.339 13.3407C101.135 12.8611 102.023 12.6212 103.003 12.6212C104.133 12.6212 105.086 12.9037 105.862 13.4678C106.638 14.0322 107.21 14.794 107.577 15.7534C107.929 16.6715 108.068 17.6996 107.996 18.8368C107.991 18.9235 107.922 18.991 107.838 18.991H100.947C100.854 18.991 100.781 19.0739 100.789 19.1703C100.83 19.67 100.942 20.0934 101.125 20.4405C101.329 20.8287 101.587 21.1109 101.901 21.2871C102.214 21.4637 102.581 21.5516 103.003 21.5516C103.602 21.5516 104.082 21.3928 104.443 21.0755C104.774 20.7839 105.057 20.3886 105.29 19.8889C105.326 19.8124 105.412 19.7763 105.488 19.8062L107.865 20.7277C107.953 20.7616 107.994 20.8663 107.953 20.9533C107.73 21.4276 107.441 21.8708 107.087 22.2823C106.692 22.741 106.158 23.1218 105.484 23.4251C104.81 23.7284 103.99 23.8801 103.024 23.8801V23.8795ZM104.866 16.8533C104.963 16.8533 105.037 16.7638 105.023 16.6646C104.972 16.3097 104.874 16.0054 104.728 15.7531C104.558 15.4569 104.327 15.2275 104.034 15.0653C103.741 14.9034 103.398 14.8219 103.003 14.8219C102.431 14.8219 101.958 14.9985 101.584 15.3509C101.248 15.667 101.025 16.1021 100.913 16.6559C100.893 16.7576 100.968 16.8533 101.069 16.8533H104.866H104.866Z" fill="#FFFFFF"/>
<path id="Vector_8" d="M16.0002 0C7.16357 0 0 7.16357 0 16.0002C0 24.8367 7.16357 32.0003 16.0002 32.0003C24.8367 32.0003 32.0003 24.8367 32.0003 16.0002C32.0003 7.16357 24.8367 0 16.0002 0ZM13.795 10.0686C13.795 10.1544 13.7295 10.224 13.649 10.224H13.1902C12.8306 10.224 12.569 10.302 12.4058 10.4583C12.2423 10.6147 12.1606 10.9012 12.1606 11.318V13.8367C12.1606 13.9178 12.1578 14.0017 12.1525 14.0884C12.1469 14.1752 12.1388 14.2594 12.1279 14.3402C12.0732 14.734 11.9399 15.0553 11.7273 15.3043C11.5147 15.5535 11.2779 15.7416 11.0162 15.8687C10.8798 15.9352 10.7331 15.997 10.5758 16.0539C10.4447 16.1015 10.4428 16.2982 10.5733 16.347C10.7564 16.4157 10.923 16.4906 11.0734 16.572C11.3404 16.7169 11.5772 16.9223 11.7845 17.1886C11.9906 17.4541 12.1102 17.7994 12.1438 18.2248C12.1438 18.2286 12.1447 18.2326 12.1453 18.2363C12.1553 18.2926 12.1606 18.3516 12.1606 18.4132V21.0795C12.1606 21.4963 12.2423 21.7856 12.4058 21.9479C12.5693 22.1098 12.8306 22.1909 13.1902 22.1909H13.649C13.7298 22.1909 13.795 22.2605 13.795 22.3463V23.9118C13.795 23.9976 13.7295 24.0672 13.649 24.0672H12.4219C11.8224 24.0672 11.3432 23.9774 10.9836 23.7981C10.624 23.6184 10.3679 23.3434 10.2153 22.9729C10.0627 22.6021 9.98654 22.1157 9.98654 21.5137V18.5782C9.98654 18.5387 9.9825 18.503 9.97442 18.4716C9.97193 18.4614 9.96976 18.4511 9.96914 18.4405C9.94614 18.1011 9.88118 17.8491 9.77395 17.6834C9.66486 17.5156 9.51226 17.3941 9.31615 17.3186C9.15174 17.2555 8.95314 17.2188 8.72035 17.2085C8.64234 17.2051 8.5808 17.1364 8.5808 17.0534V15.3783C8.5808 15.2946 8.64327 15.2256 8.72222 15.2232C8.96246 15.2154 9.16075 15.1874 9.31646 15.1386C9.5017 15.0808 9.6515 14.9767 9.76587 14.826C9.879 14.6771 9.94676 14.4546 9.96945 14.1584C9.97007 14.1518 9.971 14.1453 9.97224 14.1391C9.98157 14.0962 9.98654 14.053 9.98654 14.0095V10.9003C9.98654 10.2983 10.0627 9.81187 10.2153 9.44109C10.3679 9.07062 10.624 8.79556 10.9836 8.61592C11.3432 8.43659 11.8227 8.34677 12.4219 8.34677H13.649C13.7298 8.34677 13.795 8.41639 13.795 8.50217V10.0677V10.0686ZM16.973 18.3908C16.973 18.88 16.5997 19.2766 16.1394 19.2766H16.0567C15.5964 19.2766 15.2232 18.88 15.2232 18.3908C15.2232 17.9016 15.5964 17.505 16.0567 17.505H16.1394C16.5997 17.505 16.973 17.9016 16.973 18.3908ZM16.973 14.5292C16.973 15.0183 16.5997 15.4149 16.1394 15.4149H16.0567C15.5964 15.4149 15.2232 15.0183 15.2232 14.5292C15.2232 14.04 15.5964 13.6434 16.0567 13.6434H16.1394C16.5997 13.6434 16.973 14.04 16.973 14.5292ZM23.6153 17.037C23.6153 17.1203 23.5532 17.1886 23.4748 17.1911C23.234 17.1989 23.0357 17.2272 22.8797 17.2757C22.6941 17.3338 22.5446 17.4379 22.4302 17.5883C22.3171 17.7372 22.249 17.9597 22.2267 18.2556C22.226 18.2621 22.2251 18.269 22.2239 18.2752C22.2142 18.3184 22.2099 18.3616 22.2099 18.4045V21.5137C22.2099 22.1157 22.1334 22.6021 21.9811 22.9729C21.8285 23.3434 21.5724 23.6184 21.2129 23.7981C20.8533 23.9774 20.3737 24.0672 19.7745 24.0672H18.5468C18.4666 24.0672 18.4014 23.9979 18.4014 23.9127V22.3457C18.4014 22.2605 18.4663 22.1912 18.5468 22.1912H19.0062C19.3658 22.1912 19.6275 22.1132 19.7906 21.9569C19.9541 21.8006 20.0359 21.514 20.0359 21.0972V18.5785C20.0359 18.4977 20.0383 18.4135 20.0439 18.3268C20.0492 18.2401 20.0576 18.1562 20.0685 18.075C20.1229 17.6816 20.2565 17.3602 20.4691 17.1109C20.6817 16.862 20.9185 16.674 21.1802 16.5465C21.3173 16.4797 21.4646 16.4179 21.6228 16.3607C21.7533 16.3134 21.7552 16.1176 21.6253 16.0692C21.4413 16.0005 21.2741 15.9249 21.1233 15.8432C20.8561 15.6987 20.6192 15.4932 20.4122 15.2266C20.2062 14.9618 20.0865 14.6165 20.0533 14.191C20.053 14.1867 20.0523 14.1823 20.0517 14.1783C20.0415 14.1223 20.0365 14.0636 20.0365 14.0024V11.336C20.0365 10.9192 19.9547 10.6299 19.7913 10.4677C19.6278 10.3057 19.3664 10.2246 19.0068 10.2246H18.5475C18.4673 10.2246 18.402 10.1553 18.402 10.0701V8.5031C18.402 8.41795 18.467 8.34864 18.5475 8.34864H19.7751C20.3743 8.34864 20.8539 8.43846 21.2135 8.61779C21.5731 8.79743 21.8289 9.07248 21.9818 9.44295C22.1344 9.81374 22.2105 10.3001 22.2105 10.9021V13.8376C22.2105 13.8774 22.2145 13.9128 22.2223 13.9439C22.2251 13.9542 22.227 13.9647 22.2279 13.9756C22.2506 14.3147 22.3156 14.5671 22.4231 14.7321C22.5319 14.9002 22.6845 15.0218 22.8809 15.097C23.0453 15.1604 23.2442 15.1967 23.4776 15.207C23.5553 15.2104 23.6166 15.2785 23.6166 15.3612V17.0379L23.6153 17.037Z" fill="#FFFFFF"/>
</g>
</svg>
