<svg width="400" height="125" viewBox="0 0 400 125" fill="none" xmlns="http://www.w3.org/2000/svg">
<path d="M59.9886 16.0614C63.1147 13.6729 67.3757 13.3951 70.7757 15.3581C74.1757 17.3211 76.0413 21.1361 75.4986 25.0161L72.1417 49.0153L72.1454 49.0174L65.6912 95.1595L102.868 66.755L114.107 73.2444L68.4972 108.093C65.3711 110.481 61.11 110.759 57.7101 108.796C54.3101 106.833 52.4445 103.018 52.9872 99.138L56.3441 75.1388L56.3404 75.1367L62.7946 28.9947L25.6183 57.3991L14.3784 50.9098L59.9886 16.0614Z" fill="url(#paint0_linear_2299_400)"/>
<path d="M25.6183 57.3991L36.003 63.3948L33.9183 78.2994L45.9557 69.141L56.3404 75.1367L36.6411 90.1879C33.7348 92.4085 29.7734 92.6668 26.6125 90.8418C23.4545 89.0185 21.7201 85.4763 22.2206 81.872L25.6183 57.3991Z" fill="url(#paint1_linear_2299_400)"/>
<path d="M102.868 66.755L92.4828 60.7594L94.5675 45.8547L82.5301 55.0131L72.1454 49.0174L91.8447 33.9662C94.751 31.7457 98.7124 31.4874 101.873 33.3123C105.031 35.1356 106.766 38.6778 106.265 42.2822L102.868 66.755Z" fill="url(#paint2_linear_2299_400)"/>
<path d="M247.114 90.226C247.114 90.226 247.057 69.9667 247.057 54.3309C247.057 38.8269 258.378 33.4176 270.969 33.4177C286.92 33.4179 294.825 43.9283 294.825 55.5122V90.226H281.858V58.564C281.858 56.2013 281.396 54.1668 280.472 52.4604C279.548 50.754 278.261 49.4414 276.612 48.5225C275.028 47.5381 273.147 47.0458 270.969 47.0458C268.858 47.0458 266.977 47.5381 265.327 48.5225C263.678 49.4414 262.391 50.754 261.467 52.4604C260.543 54.1668 260.081 56.2013 260.081 58.564V90.226H247.114Z" fill="#111111"/>
<path d="M247.114 90.226C247.114 90.226 247.057 69.9667 247.057 54.3309C247.057 38.8269 258.378 33.4176 270.969 33.4177C286.92 33.4179 294.825 43.9283 294.825 55.5122V90.226H281.858V58.564C281.858 56.2013 281.396 54.1668 280.472 52.4604C279.548 50.754 278.261 49.4414 276.612 48.5225C275.028 47.5381 273.147 47.0458 270.969 47.0458C268.858 47.0458 266.977 47.5381 265.327 48.5225C263.678 49.4414 262.391 50.754 261.467 52.4604C260.543 54.1668 260.081 56.2013 260.081 58.564V90.226H247.114Z" fill="#111111"/>
<path d="M136.341 32.7905C139.79 44.9848 146.695 67.1417 150.83 80.4719C152.604 86.1925 157.891 90.1187 163.88 90.1187C169.79 90.1187 175.029 86.2856 176.806 80.6489L191.896 32.7905H178.045C178.045 32.7905 168.01 65.4386 164.231 73.9932C160.451 65.9571 149.765 32.7905 149.765 32.7905H136.341Z" fill="#111111"/>
<path d="M136.341 32.7905C139.79 44.9848 146.695 67.1417 150.83 80.4719C152.604 86.1925 157.891 90.1187 163.88 90.1187C169.79 90.1187 175.029 86.2856 176.806 80.6489L191.896 32.7905H178.045C178.045 32.7905 168.01 65.4386 164.231 73.9932C160.451 65.9571 149.765 32.7905 149.765 32.7905H136.341Z" fill="#111111"/>
<path fill-rule="evenodd" clip-rule="evenodd" d="M227.804 89.1951V83.5789C227.121 84.3278 226.395 85.0185 225.627 85.651C223.713 87.1605 221.535 88.3419 219.094 89.1951C216.652 89.9826 213.947 90.3764 210.977 90.3764C207.216 90.3764 203.949 89.7529 201.178 88.5059C198.406 87.259 196.261 85.4869 194.744 83.1899C193.226 80.8272 192.467 78.1035 192.467 75.0188C192.467 72.0655 193.127 69.4403 194.447 67.1432C195.767 64.7805 197.812 62.8116 200.584 61.2364C203.355 59.6613 206.853 58.5456 211.076 57.8893L227.112 55.291V53.5577C227.112 51.2606 226.188 49.3573 224.34 47.8478C222.558 46.2727 220.183 45.4851 217.213 45.4851C214.442 45.4851 211.967 46.2398 209.789 47.7493C207.678 49.1932 206.127 51.1293 205.137 53.5577L194.546 48.4385C195.602 45.6163 197.251 43.188 199.495 41.1535C201.805 39.0533 204.51 37.4125 207.612 36.2312C210.713 35.0498 214.079 34.4591 217.708 34.4591C222.129 34.4591 226.023 35.2795 229.388 36.9203C232.754 38.4954 235.36 40.7269 237.208 43.6146C239.122 46.4367 240.079 49.7511 240.079 53.5577V89.1951H227.804ZM213.551 67.4385L227.112 65.1466V67.3401C227.112 69.7684 226.518 71.9998 225.33 74.0344C224.208 76.0689 222.591 77.6769 220.48 78.8582C218.434 79.974 216.058 80.5318 213.353 80.5318C211.241 80.5318 209.459 80.0068 208.008 78.9567C206.622 77.841 205.929 76.3643 205.929 74.5266C205.929 72.6233 206.556 71.081 207.81 69.8997C209.063 68.7183 210.977 67.8979 213.551 67.4385Z" fill="#111111"/>
<path fill-rule="evenodd" clip-rule="evenodd" d="M387.726 89.1951V83.5789C387.043 84.3278 386.317 85.0185 385.548 85.651C383.635 87.1605 381.457 88.3419 379.015 89.1951C376.574 89.9826 373.868 90.3764 370.898 90.3764C367.137 90.3764 363.871 89.7529 361.099 88.5059C358.328 87.259 356.183 85.4869 354.665 83.1899C353.147 80.8272 352.388 78.1035 352.388 75.0188C352.388 72.0655 353.048 69.4403 354.368 67.1432C355.688 64.7805 357.734 62.8116 360.505 61.2364C363.277 59.6613 366.774 58.5456 370.997 57.8893L387.033 55.291V53.5577C387.033 51.2606 386.109 49.3573 384.261 47.8478C382.48 46.2727 380.104 45.4851 377.135 45.4851C374.363 45.4851 371.888 46.2398 369.711 47.7493C367.599 49.1932 366.048 51.1293 365.058 53.5577L354.467 48.4385C355.523 45.6163 357.173 43.188 359.416 41.1535C361.726 39.0533 364.432 37.4125 367.533 36.2312C370.635 35.0498 374 34.4591 377.629 34.4591C382.051 34.4591 385.944 35.2795 389.31 36.9203C392.675 38.4954 395.282 40.7269 397.129 43.6146C399.043 46.4367 400 49.7511 400 53.5577V89.1951H387.726ZM373.472 67.4385L387.033 65.1466V67.3401C387.033 69.7684 386.439 71.9998 385.251 74.0344C384.129 76.0689 382.513 77.6769 380.401 78.8582C378.355 79.974 375.98 80.5318 373.274 80.5318C371.162 80.5318 369.381 80.0068 367.929 78.9567C366.543 77.841 365.85 76.3643 365.85 74.5266C365.85 72.6233 366.477 71.081 367.731 69.8997C368.985 68.7183 370.899 67.8979 373.472 67.4385Z" fill="#111111"/>
<path d="M300.661 90.226C300.661 90.226 300.604 69.9666 300.604 54.3308C300.604 38.8268 311.925 33.4176 324.516 33.4177C340.466 33.4178 348.371 43.9283 348.371 55.5122V90.226H335.404V58.564C335.404 56.2013 334.943 54.1667 334.019 52.4603C333.095 50.754 331.808 49.4413 330.158 48.5225C328.575 47.538 326.694 47.0458 324.516 47.0458C322.405 47.0458 320.524 47.538 318.874 48.5225C317.224 49.4413 315.938 50.754 315.014 52.4603C314.09 54.1667 313.628 56.2013 313.628 58.564V90.226H300.661Z" fill="#111111"/>
<path d="M300.661 90.226C300.661 90.226 300.604 69.9666 300.604 54.3308C300.604 38.8268 311.925 33.4176 324.516 33.4177C340.466 33.4178 348.371 43.9283 348.371 55.5122V90.226H335.404V58.564C335.404 56.2013 334.943 54.1667 334.019 52.4603C333.095 50.754 331.808 49.4413 330.158 48.5225C328.575 47.538 326.694 47.0458 324.516 47.0458C322.405 47.0458 320.524 47.538 318.874 48.5225C317.224 49.4413 315.938 50.754 315.014 52.4603C314.09 54.1667 313.628 56.2013 313.628 58.564V90.226H300.661Z" fill="#111111"/>
<defs>
<linearGradient id="paint0_linear_2299_400" x1="44.2096" y1="0.0204605" x2="128.492" y2="50.5742" gradientUnits="userSpaceOnUse">
<stop stop-color="#FC5457"/>
<stop offset="1" stop-color="#703AE6"/>
</linearGradient>
<linearGradient id="paint1_linear_2299_400" x1="44.2096" y1="0.0204605" x2="128.492" y2="50.5742" gradientUnits="userSpaceOnUse">
<stop stop-color="#FC5457"/>
<stop offset="1" stop-color="#703AE6"/>
</linearGradient>
<linearGradient id="paint2_linear_2299_400" x1="44.2096" y1="0.0204605" x2="128.492" y2="50.5742" gradientUnits="userSpaceOnUse">
<stop stop-color="#FC5457"/>
<stop offset="1" stop-color="#703AE6"/>
</linearGradient>
</defs>
</svg>
