<svg width="347" height="347" viewBox="0 0 347 347" fill="none" xmlns="http://www.w3.org/2000/svg">
<rect width="346.045" height="346.045" rx="83.0508" fill="black"/>
<path d="M175.089 92.291C179.294 89.5947 184.71 89.7047 188.802 92.5696L193.511 95.867C197.602 98.7319 199.558 103.784 198.463 108.657L188.695 152.098L188.701 152.102L171.135 230.231L238.544 187.002L254.27 198.014C255.467 198.852 255.43 200.635 254.201 201.424L171.657 254.358C167.453 257.055 162.036 256.945 157.945 254.08L153.236 250.782C149.144 247.917 147.188 242.865 148.284 237.992L158.051 194.551L158.045 194.547L175.612 116.418L108.203 159.647L92.476 148.635C91.2799 147.797 91.3161 146.014 92.5453 145.226L175.089 92.291Z" fill="white"/>
<path d="M108.203 159.647L125.051 171.444L119.376 196.681L141.197 182.75L158.045 194.547L120.565 218.583C116.36 221.279 110.944 221.169 106.852 218.304L103.427 215.906C99.3396 213.044 97.383 207.998 98.4728 203.128L108.203 159.647Z" fill="white"/>
<path d="M238.544 187.002L221.696 175.205L227.37 149.968L205.549 163.899L188.701 152.102L226.182 128.066C230.386 125.37 235.803 125.48 239.894 128.345L243.319 130.743C247.407 133.605 249.363 138.652 248.274 143.521L238.544 187.002Z" fill="white"/>
</svg>
